<svg width="25" height="25" viewBox="0 0 25 25" fill="none" xmlns="http://www.w3.org/2000/svg">
<path d="M8.04136 20.13C8.04136 20.2334 7.92987 20.3161 7.78931 20.3161C7.62935 20.3316 7.51787 20.2489 7.51787 20.13C7.51787 20.0266 7.62935 19.9439 7.76992 19.9439C7.91533 19.9284 8.04136 20.0111 8.04136 20.13ZM6.5339 19.8973C6.49997 20.0007 6.59692 20.1196 6.74233 20.1506C6.86835 20.2023 7.01377 20.1506 7.04285 20.0473C7.07193 19.9439 6.97984 19.825 6.83442 19.7784C6.7084 19.7423 6.56783 19.7939 6.5339 19.8973ZM8.67633 19.8095C8.53576 19.8456 8.43882 19.9439 8.45336 20.0628C8.4679 20.1661 8.59393 20.2334 8.73934 20.1972C8.87991 20.161 8.97685 20.0628 8.96231 19.9594C8.94776 19.8611 8.81689 19.7939 8.67633 19.8095ZM11.8657 0C5.14278 0 0 5.44346 0 12.6135C0 18.3465 3.38328 23.2523 8.21585 24.9789C8.83628 25.0978 9.0544 24.6894 9.0544 24.3534C9.0544 24.0329 9.03986 22.265 9.03986 21.1794C9.03986 21.1794 5.64688 21.9548 4.93436 19.6389C4.93436 19.6389 4.38179 18.1345 3.58686 17.7468C3.58686 17.7468 2.47687 16.9352 3.66442 16.9507C3.66442 16.9507 4.87135 17.0541 5.5354 18.2845C6.59692 20.2799 8.37581 19.7061 9.06894 19.3649C9.18043 18.5378 9.49549 17.9639 9.84448 17.6228C7.13495 17.3023 4.40118 16.8835 4.40118 11.9105C4.40118 10.4889 4.76956 9.77549 5.54509 8.86566C5.41907 8.52965 5.00706 7.14422 5.67112 5.35558C6.68416 5.01957 9.01562 6.75134 9.01562 6.75134C9.98505 6.46185 11.0272 6.31194 12.0596 6.31194C13.092 6.31194 14.1342 6.46185 15.1036 6.75134C15.1036 6.75134 17.4351 5.0144 18.4481 5.35558C19.1122 7.14939 18.7001 8.52965 18.5741 8.86566C19.3497 9.78066 19.8247 10.494 19.8247 11.9105C19.8247 16.899 16.9697 17.2971 14.2602 17.6228C14.7061 18.0312 15.0842 18.8066 15.0842 20.0214C15.0842 21.7635 15.0697 23.9192 15.0697 24.3431C15.0697 24.6791 15.2926 25.0875 15.9082 24.9686C20.7553 23.2523 24.0417 18.3465 24.0417 12.6135C24.0417 5.44346 18.5887 0 11.8657 0ZM4.71139 17.8295C4.64838 17.8812 4.66292 18.0001 4.74532 18.0984C4.82287 18.1811 4.93436 18.2173 4.99737 18.1501C5.06038 18.0984 5.04584 17.9795 4.96344 17.8812C4.88589 17.7985 4.7744 17.7623 4.71139 17.8295ZM4.1879 17.4108C4.15397 17.478 4.20244 17.5607 4.29939 17.6124C4.37694 17.6641 4.47388 17.6486 4.50781 17.5762C4.54174 17.509 4.49327 17.4263 4.39633 17.3746C4.29939 17.3436 4.22183 17.3591 4.1879 17.4108ZM5.75837 19.2512C5.68081 19.3184 5.7099 19.4734 5.82138 19.5717C5.93286 19.6906 6.07343 19.7061 6.13644 19.6234C6.19945 19.5562 6.17037 19.4011 6.07343 19.3028C5.96679 19.1839 5.82138 19.1684 5.75837 19.2512ZM5.2058 18.4912C5.12824 18.5429 5.12824 18.6773 5.2058 18.7962C5.28335 18.9151 5.41422 18.9668 5.47723 18.9151C5.55479 18.8479 5.55479 18.7135 5.47723 18.5946C5.40937 18.4757 5.28335 18.424 5.2058 18.4912Z" fill="#96C300"/>
</svg>
