<svg width="25" height="25" viewBox="0 0 25 25" fill="none" xmlns="http://www.w3.org/2000/svg">
<path d="M5.38254 25H0.397117V8.30915H5.38254V25ZM2.88715 6.03237C1.29331 6.03237 0 4.6596 0 3.00223C0 2.20599 0.304181 1.44236 0.845626 0.879333C1.38707 0.316306 2.12143 0 2.88715 0C3.65287 0 4.38722 0.316306 4.92867 0.879333C5.47011 1.44236 5.77429 2.20599 5.77429 3.00223C5.77429 4.6596 4.48098 6.03237 2.88715 6.03237ZM24.0363 25H19.0616V16.875C19.0616 14.9386 19.024 12.4554 16.4696 12.4554C13.8776 12.4554 13.4805 14.5592 13.4805 16.7355V25H8.50045V8.30915H13.2819V10.5859H13.3517C14.0172 9.27455 15.6432 7.89062 18.0688 7.89062C23.1133 7.89062 24.0417 11.3449 24.0417 15.8315V25H24.0363Z" fill="#96C300"/>
</svg>
