<svg width="28" height="22" viewBox="0 0 28 22" fill="none" xmlns="http://www.w3.org/2000/svg">
<path d="M5.95527 21.67C4.90116 21.67 3.85877 21.4491 2.82809 21.0074C1.79741 20.5657 0.965837 19.9834 0.333374 19.2606C0.942413 19.2606 1.56316 19.0548 2.19563 18.6432C2.82809 18.2316 3.14432 17.6343 3.14432 16.8512C3.14432 15.8473 3.55425 14.994 4.37411 14.2913C5.19397 13.5885 6.18952 13.2372 7.36074 13.2372C8.53197 13.2372 9.52752 13.5885 10.3474 14.2913C11.1672 14.994 11.5772 15.8473 11.5772 16.8512C11.5772 18.1764 11.0267 19.3108 9.92573 20.2545C8.82478 21.1982 7.50129 21.67 5.95527 21.67ZM5.95527 19.2606C6.72828 19.2606 7.39002 19.0247 7.9405 18.5529C8.49098 18.081 8.76622 17.5138 8.76622 16.8512C8.76622 16.5099 8.63153 16.2238 8.36214 15.9929C8.09276 15.762 7.75896 15.6465 7.36074 15.6465C6.96253 15.6465 6.62873 15.762 6.35934 15.9929C6.08996 16.2238 5.95527 16.5099 5.95527 16.8512C5.95527 17.313 5.89085 17.7347 5.76202 18.1162C5.63318 18.4976 5.46335 18.8591 5.25253 19.2004C5.36966 19.2405 5.48678 19.2606 5.6039 19.2606H5.95527ZM14.0367 14.4418L10.1717 11.1289L22.7507 0.346951C23.0084 0.126091 23.3304 0.0106414 23.7169 0.000602346C24.1035 -0.00943675 24.4373 0.106013 24.7183 0.346951L26.6157 1.97329C26.8968 2.21422 27.0374 2.49532 27.0374 2.81657C27.0374 3.13782 26.8968 3.41892 26.6157 3.65985L14.0367 14.4418Z" fill="#96C300"/>
</svg>
